<svg xmlns="http://www.w3.org/2000/svg" style="display:none" aria-hidden="true"><symbol id="icon-music-2" viewBox="0 0 24 24"><circle cx="8" cy="18" r="4" />
  <path d="M12 18V2l7 4" />
</symbol><symbol id="icon-star" viewBox="0 0 24 24"><path d="M11.525 2.295a.53.53 0 0 1 .95 0l2.31 4.679a2.123 2.123 0 0 0 1.595 1.16l5.166.756a.53.53 0 0 1 .294.904l-3.736 3.638a2.123 2.123 0 0 0-.611 1.878l.882 5.14a.53.53 0 0 1-.771.56l-4.618-2.428a2.122 2.122 0 0 0-1.973 0L6.396 21.01a.53.53 0 0 1-.77-.56l.881-5.139a2.122 2.122 0 0 0-.611-1.879L2.16 9.795a.53.53 0 0 1 .294-.906l5.165-.755a2.122 2.122 0 0 0 1.597-1.16z" />
</symbol><symbol id="icon-play" viewBox="0 0 24 24"><polygon points="6 3 20 12 6 21 6 3" />
</symbol><symbol id="icon-pause" viewBox="0 0 24 24"><rect x="14" y="4" width="4" height="16" rx="1" />
  <rect x="6" y="4" width="4" height="16" rx="1" />
</symbol><symbol id="icon-square" viewBox="0 0 24 24"><rect width="18" height="18" x="3" y="3" rx="2" />
</symbol><symbol id="icon-refresh-cw" viewBox="0 0 24 24"><path d="M3 12a9 9 0 0 1 9-9 9.75 9.75 0 0 1 6.74 2.74L21 8" />
  <path d="M21 3v5h-5" />
  <path d="M21 12a9 9 0 0 1-9 9 9.75 9.75 0 0 1-6.74-2.74L3 16" />
  <path d="M8 16H3v5" />
</symbol><symbol id="icon-settings-2" viewBox="0 0 24 24"><path d="M20 7h-9" />
  <path d="M14 17H5" />
  <circle cx="17" cy="17" r="3" />
  <circle cx="7" cy="7" r="3" />
</symbol><symbol id="icon-usb" viewBox="0 0 24 24"><circle cx="10" cy="7" r="1" />
  <circle cx="4" cy="20" r="1" />
  <path d="M4.7 19.3 19 5" />
  <path d="m21 3-3 1 2 2Z" />
  <path d="M9.26 7.68 5 12l2 5" />
  <path d="m10 14 5 2 3.5-3.5" />
  <path d="m18 12 1-1 1 1-1 1Z" />
</symbol><symbol id="icon-arrow-left" viewBox="0 0 24 24"><path d="m12 19-7-7 7-7" />
  <path d="M19 12H5" />
</symbol><symbol id="icon-arrow-right" viewBox="0 0 24 24"><path d="M5 12h14" />
  <path d="m12 5 7 7-7 7" />
</symbol><symbol id="icon-search" viewBox="0 0 24 24"><circle cx="11" cy="11" r="8" />
  <path d="m21 21-4.3-4.3" />
</symbol><symbol id="icon-wifi" viewBox="0 0 24 24"><path d="M12 20h.01" />
  <path d="M2 8.82a15 15 0 0 1 20 0" />
  <path d="M5 12.859a10 10 0 0 1 14 0" />
  <path d="M8.5 16.429a5 5 0 0 1 7 0" />
</symbol><symbol id="icon-log-out" viewBox="0 0 24 24"><path d="M9 21H5a2 2 0 0 1-2-2V5a2 2 0 0 1 2-2h4" />
  <polyline points="16 17 21 12 16 7" />
  <line x1="21" x2="9" y1="12" y2="12" />
</symbol></svg>
